<svg xmlns="http://www.w3.org/2000/svg" xmlns:xlink="http://www.w3.org/1999/xlink" width="500" zoomAndPan="magnify" viewBox="0 0 375 374.999991" height="500" preserveAspectRatio="xMidYMid meet" version="1.0"><defs><g/></defs><g fill="#ffffff" fill-opacity="1"><g transform="translate(32.506067, 158.847822)"><g><path d="M 10.953125 -19.171875 C 12.304688 -19.171875 13.625 -18.910156 14.90625 -18.390625 C 16.1875 -17.867188 17.289062 -17.144531 18.21875 -16.21875 L 16.328125 -13.875 C 15.640625 -14.625 14.820312 -15.21875 13.875 -15.65625 C 12.925781 -16.09375 11.972656 -16.3125 11.015625 -16.3125 C 9.109375 -16.3125 7.492188 -15.660156 6.171875 -14.359375 C 4.859375 -13.054688 4.203125 -11.46875 4.203125 -9.59375 C 4.203125 -7.707031 4.859375 -6.113281 6.171875 -4.8125 C 7.492188 -3.507812 9.109375 -2.859375 11.015625 -2.859375 C 12.992188 -2.859375 14.765625 -3.613281 16.328125 -5.125 L 18.234375 -3 C 17.253906 -2.03125 16.109375 -1.265625 14.796875 -0.703125 C 13.492188 -0.140625 12.179688 0.140625 10.859375 0.140625 C 8.054688 0.140625 5.695312 -0.789062 3.78125 -2.65625 C 1.875 -4.519531 0.921875 -6.820312 0.921875 -9.5625 C 0.921875 -12.269531 1.890625 -14.546875 3.828125 -16.390625 C 5.765625 -18.242188 8.140625 -19.171875 10.953125 -19.171875 Z M 10.953125 -19.171875 "/></g></g></g><g fill="#ffffff" fill-opacity="1"><g transform="translate(62.422904, 158.847822)"><g><path d="M 19.0625 0 L 15.84375 0 L 15.84375 -7.90625 L 5.71875 -7.90625 L 5.71875 0 L 2.515625 0 L 2.515625 -19.078125 L 5.71875 -19.078125 L 5.71875 -10.796875 L 15.84375 -10.796875 L 15.84375 -19.078125 L 19.0625 -19.078125 Z M 19.0625 0 "/></g></g></g><g fill="#ffffff" fill-opacity="1"><g transform="translate(94.903068, 158.847822)"><g><path d="M 14.609375 0 L 11.125 -5.78125 C 10.945312 -5.757812 10.65625 -5.75 10.25 -5.75 L 5.71875 -5.75 L 5.71875 0 L 2.515625 0 L 2.515625 -19.078125 L 10.25 -19.078125 C 12.6875 -19.078125 14.578125 -18.507812 15.921875 -17.375 C 17.265625 -16.238281 17.9375 -14.632812 17.9375 -12.5625 C 17.9375 -11.039062 17.59375 -9.75 16.90625 -8.6875 C 16.226562 -7.632812 15.253906 -6.863281 13.984375 -6.375 L 18.265625 0 Z M 5.71875 -8.640625 L 10.25 -8.640625 C 13.34375 -8.640625 14.890625 -9.921875 14.890625 -12.484375 C 14.890625 -14.960938 13.34375 -16.203125 10.25 -16.203125 L 5.71875 -16.203125 Z M 5.71875 -8.640625 "/></g></g></g><g fill="#ffffff" fill-opacity="1"><g transform="translate(125.528915, 158.847822)"><g><path d="M 5.71875 0 L 2.515625 0 L 2.515625 -19.078125 L 5.71875 -19.078125 Z M 5.71875 0 "/></g></g></g><g fill="#ffffff" fill-opacity="1"><g transform="translate(144.674307, 158.847822)"><g><path d="M 8.78125 -19.21875 C 11.25 -19.21875 13.472656 -18.566406 15.453125 -17.265625 L 14.125 -14.421875 C 12.175781 -15.609375 10.3125 -16.203125 8.53125 -16.203125 C 7.570312 -16.203125 6.8125 -16.023438 6.25 -15.671875 C 5.695312 -15.328125 5.421875 -14.835938 5.421875 -14.203125 C 5.421875 -13.566406 5.675781 -13.023438 6.1875 -12.578125 C 6.695312 -12.140625 7.332031 -11.8125 8.09375 -11.59375 C 8.863281 -11.382812 9.691406 -11.117188 10.578125 -10.796875 C 11.472656 -10.484375 12.300781 -10.148438 13.0625 -9.796875 C 13.820312 -9.441406 14.453125 -8.882812 14.953125 -8.125 C 15.453125 -7.375 15.703125 -6.46875 15.703125 -5.40625 C 15.703125 -3.726562 15.035156 -2.390625 13.703125 -1.390625 C 12.367188 -0.390625 10.632812 0.109375 8.5 0.109375 C 7.050781 0.109375 5.644531 -0.160156 4.28125 -0.703125 C 2.914062 -1.253906 1.722656 -1.992188 0.703125 -2.921875 L 2.09375 -5.703125 C 3.0625 -4.804688 4.117188 -4.117188 5.265625 -3.640625 C 6.421875 -3.160156 7.519531 -2.921875 8.5625 -2.921875 C 9.6875 -2.921875 10.5625 -3.125 11.1875 -3.53125 C 11.820312 -3.9375 12.140625 -4.503906 12.140625 -5.234375 C 12.140625 -5.890625 11.882812 -6.4375 11.375 -6.875 C 10.863281 -7.320312 10.222656 -7.648438 9.453125 -7.859375 C 8.691406 -8.066406 7.863281 -8.320312 6.96875 -8.625 C 6.082031 -8.925781 5.257812 -9.242188 4.5 -9.578125 C 3.738281 -9.921875 3.101562 -10.460938 2.59375 -11.203125 C 2.082031 -11.953125 1.828125 -12.851562 1.828125 -13.90625 C 1.828125 -15.519531 2.460938 -16.804688 3.734375 -17.765625 C 5.003906 -18.734375 6.6875 -19.21875 8.78125 -19.21875 Z M 8.78125 -19.21875 "/></g></g></g><g fill="#ffffff" fill-opacity="1"><g transform="translate(172.545933, 158.847822)"><g><path d="M 15.546875 -16.203125 L 9.484375 -16.203125 L 9.484375 0 L 6.265625 0 L 6.265625 -16.203125 L 0.25 -16.203125 L 0.25 -19.078125 L 15.546875 -19.078125 Z M 15.546875 -16.203125 "/></g></g></g><g fill="#ffffff" fill-opacity="1"><g transform="translate(199.244974, 158.847822)"><g><path d="M 3.84375 -16.390625 C 5.789062 -18.242188 8.191406 -19.171875 11.046875 -19.171875 C 13.898438 -19.171875 16.296875 -18.242188 18.234375 -16.390625 C 20.179688 -14.546875 21.15625 -12.257812 21.15625 -9.53125 C 21.15625 -6.8125 20.179688 -4.519531 18.234375 -2.65625 C 16.296875 -0.789062 13.898438 0.140625 11.046875 0.140625 C 8.191406 0.140625 5.789062 -0.789062 3.84375 -2.65625 C 1.894531 -4.519531 0.921875 -6.8125 0.921875 -9.53125 C 0.921875 -12.257812 1.894531 -14.546875 3.84375 -16.390625 Z M 11.0625 -16.28125 C 9.175781 -16.28125 7.5625 -15.628906 6.21875 -14.328125 C 4.875 -13.023438 4.203125 -11.425781 4.203125 -9.53125 C 4.203125 -7.644531 4.878906 -6.039062 6.234375 -4.71875 C 7.585938 -3.40625 9.195312 -2.75 11.0625 -2.75 C 12.9375 -2.75 14.535156 -3.40625 15.859375 -4.71875 C 17.191406 -6.039062 17.859375 -7.644531 17.859375 -9.53125 C 17.859375 -11.425781 17.191406 -13.023438 15.859375 -14.328125 C 14.535156 -15.628906 12.9375 -16.28125 11.0625 -16.28125 Z M 11.0625 -16.28125 "/></g></g></g><g fill="#ffffff" fill-opacity="1"><g transform="translate(232.243266, 158.847822)"><g><path d="M 2.515625 -19.078125 L 10.109375 -19.078125 C 12.515625 -19.078125 14.375 -18.507812 15.6875 -17.375 C 17.007812 -16.238281 17.671875 -14.632812 17.671875 -12.5625 C 17.671875 -10.40625 17.007812 -8.726562 15.6875 -7.53125 C 14.375 -6.34375 12.515625 -5.75 10.109375 -5.75 L 5.71875 -5.75 L 5.71875 0 L 2.515625 0 Z M 5.71875 -16.203125 L 5.71875 -8.640625 L 9.984375 -8.640625 C 13.054688 -8.640625 14.59375 -9.921875 14.59375 -12.484375 C 14.59375 -14.960938 13.054688 -16.203125 9.984375 -16.203125 Z M 5.71875 -16.203125 "/></g></g></g><g fill="#ffffff" fill-opacity="1"><g transform="translate(261.505647, 158.847822)"><g><path d="M 19.0625 0 L 15.84375 0 L 15.84375 -7.90625 L 5.71875 -7.90625 L 5.71875 0 L 2.515625 0 L 2.515625 -19.078125 L 5.71875 -19.078125 L 5.71875 -10.796875 L 15.84375 -10.796875 L 15.84375 -19.078125 L 19.0625 -19.078125 Z M 19.0625 0 "/></g></g></g><g fill="#ffffff" fill-opacity="1"><g transform="translate(293.985808, 158.847822)"><g><path d="M 16.140625 -16.203125 L 5.71875 -16.203125 L 5.71875 -11.046875 L 15.046875 -11.046875 L 15.046875 -8.15625 L 5.71875 -8.15625 L 5.71875 -2.890625 L 16.46875 -2.890625 L 16.46875 0 L 2.515625 0 L 2.515625 -19.078125 L 16.140625 -19.078125 Z M 16.140625 -16.203125 "/></g></g></g><g fill="#ffffff" fill-opacity="1"><g transform="translate(322.784612, 158.847822)"><g><path d="M 14.609375 0 L 11.125 -5.78125 C 10.945312 -5.757812 10.65625 -5.75 10.25 -5.75 L 5.71875 -5.75 L 5.71875 0 L 2.515625 0 L 2.515625 -19.078125 L 10.25 -19.078125 C 12.6875 -19.078125 14.578125 -18.507812 15.921875 -17.375 C 17.265625 -16.238281 17.9375 -14.632812 17.9375 -12.5625 C 17.9375 -11.039062 17.59375 -9.75 16.90625 -8.6875 C 16.226562 -7.632812 15.253906 -6.863281 13.984375 -6.375 L 18.265625 0 Z M 5.71875 -8.640625 L 10.25 -8.640625 C 13.34375 -8.640625 14.890625 -9.921875 14.890625 -12.484375 C 14.890625 -14.960938 13.34375 -16.203125 10.25 -16.203125 L 5.71875 -16.203125 Z M 5.71875 -8.640625 "/></g></g></g><g fill="#ffffff" fill-opacity="1"><g transform="translate(67.638877, 196.34782)"><g><path d="M 16.140625 -16.203125 L 5.71875 -16.203125 L 5.71875 -11.046875 L 15.046875 -11.046875 L 15.046875 -8.15625 L 5.71875 -8.15625 L 5.71875 -2.890625 L 16.46875 -2.890625 L 16.46875 0 L 2.515625 0 L 2.515625 -19.078125 L 16.140625 -19.078125 Z M 16.140625 -16.203125 "/></g></g></g><g fill="#ffffff" fill-opacity="1"><g transform="translate(96.437672, 196.34782)"><g><path d="M 22.6875 0 L 19.71875 0 L 19.6875 -14.265625 L 13.65625 -1.984375 L 11.5625 -1.984375 L 5.53125 -14.265625 L 5.53125 0 L 2.515625 0 L 2.515625 -19.078125 L 6.328125 -19.078125 L 12.625 -6.40625 L 18.890625 -19.078125 L 22.6875 -19.078125 Z M 22.6875 0 "/></g></g></g><g fill="#ffffff" fill-opacity="1"><g transform="translate(132.571946, 196.34782)"><g><path d="M 22.6875 0 L 19.71875 0 L 19.6875 -14.265625 L 13.65625 -1.984375 L 11.5625 -1.984375 L 5.53125 -14.265625 L 5.53125 0 L 2.515625 0 L 2.515625 -19.078125 L 6.328125 -19.078125 L 12.625 -6.40625 L 18.890625 -19.078125 L 22.6875 -19.078125 Z M 22.6875 0 "/></g></g></g><g fill="#ffffff" fill-opacity="1"><g transform="translate(168.706223, 196.34782)"><g><path d="M 14.828125 -4.3125 L 5.203125 -4.3125 L 3.375 0 L 0.03125 0 L 8.453125 -19.078125 L 11.75 -19.078125 L 20.09375 0 L 16.65625 0 Z M 13.609375 -7.171875 L 10 -15.65625 L 6.40625 -7.171875 Z M 13.609375 -7.171875 "/></g></g></g><g fill="#ffffff" fill-opacity="1"><g transform="translate(199.74111, 196.34782)"><g><path d="M 19.0625 0 L 15.890625 0 L 5.71875 -13.6875 L 5.71875 0 L 2.515625 0 L 2.515625 -19.078125 L 5.671875 -19.078125 L 15.890625 -5.375 L 15.890625 -19.078125 L 19.0625 -19.078125 Z M 19.0625 0 "/></g></g></g><g fill="#ffffff" fill-opacity="1"><g transform="translate(232.248542, 196.34782)"><g><path d="M 18.734375 -19.078125 L 18.734375 -7.90625 C 18.734375 -5.414062 17.992188 -3.453125 16.515625 -2.015625 C 15.046875 -0.578125 13.019531 0.140625 10.4375 0.140625 C 7.863281 0.140625 5.832031 -0.578125 4.34375 -2.015625 C 2.863281 -3.453125 2.125 -5.414062 2.125 -7.90625 L 2.125 -19.078125 L 5.34375 -19.078125 L 5.34375 -7.90625 C 5.34375 -6.300781 5.800781 -5.039062 6.71875 -4.125 C 7.632812 -3.207031 8.882812 -2.75 10.46875 -2.75 C 12.03125 -2.75 13.257812 -3.203125 14.15625 -4.109375 C 15.0625 -5.023438 15.515625 -6.289062 15.515625 -7.90625 L 15.515625 -19.078125 Z M 18.734375 -19.078125 "/></g></g></g><g fill="#ffffff" fill-opacity="1"><g transform="translate(263.992449, 196.34782)"><g><path d="M 16.140625 -16.203125 L 5.71875 -16.203125 L 5.71875 -11.046875 L 15.046875 -11.046875 L 15.046875 -8.15625 L 5.71875 -8.15625 L 5.71875 -2.890625 L 16.46875 -2.890625 L 16.46875 0 L 2.515625 0 L 2.515625 -19.078125 L 16.140625 -19.078125 Z M 16.140625 -16.203125 "/></g></g></g><g fill="#ffffff" fill-opacity="1"><g transform="translate(292.791252, 196.34782)"><g><path d="M 5.71875 -2.921875 L 13.984375 -2.921875 L 13.984375 0 L 2.515625 0 L 2.515625 -19.078125 L 5.71875 -19.078125 Z M 5.71875 -2.921875 "/></g></g></g><g fill="#ffffff" fill-opacity="1"><g transform="translate(130.965143, 236.792839)"><g><path d="M 6.546875 0.25 C 4.648438 0.25 3.265625 -0.242188 2.390625 -1.234375 C 1.515625 -2.222656 1.078125 -3.453125 1.078125 -4.921875 C 1.078125 -5.359375 1.128906 -5.851562 1.234375 -6.40625 C 1.472656 -7.75 1.976562 -8.921875 2.75 -9.921875 C 3.53125 -10.929688 4.460938 -11.695312 5.546875 -12.21875 C 6.628906 -12.75 7.753906 -13.015625 8.921875 -13.015625 C 9.460938 -13.015625 10.019531 -12.953125 10.59375 -12.828125 C 11.175781 -12.710938 11.632812 -12.578125 11.96875 -12.421875 C 12.050781 -12.359375 12.101562 -12.300781 12.125 -12.25 C 12.144531 -12.195312 12.144531 -12.09375 12.125 -11.9375 L 11.796875 -9.203125 C 11.796875 -9.160156 11.757812 -9.140625 11.6875 -9.140625 C 11.625 -9.140625 11.585938 -9.160156 11.578125 -9.203125 C 11.347656 -10.222656 10.925781 -11.019531 10.3125 -11.59375 C 9.707031 -12.164062 8.960938 -12.453125 8.078125 -12.453125 C 6.890625 -12.453125 5.890625 -11.972656 5.078125 -11.015625 C 4.265625 -10.066406 3.742188 -8.753906 3.515625 -7.078125 C 3.429688 -6.503906 3.390625 -5.945312 3.390625 -5.40625 C 3.390625 -4.40625 3.519531 -3.507812 3.78125 -2.71875 C 4.039062 -1.925781 4.421875 -1.300781 4.921875 -0.84375 C 5.421875 -0.382812 6.003906 -0.15625 6.671875 -0.15625 C 7.347656 -0.15625 8.039062 -0.40625 8.75 -0.90625 C 9.457031 -1.414062 10.207031 -2.203125 11 -3.265625 C 11.019531 -3.296875 11.046875 -3.3125 11.078125 -3.3125 C 11.117188 -3.3125 11.15625 -3.300781 11.1875 -3.28125 C 11.226562 -3.257812 11.242188 -3.238281 11.234375 -3.21875 L 10.671875 -0.859375 C 10.628906 -0.691406 10.585938 -0.578125 10.546875 -0.515625 C 10.515625 -0.453125 10.4375 -0.410156 10.3125 -0.390625 C 9.082031 0.0351562 7.828125 0.25 6.546875 0.25 Z M 6.546875 0.25 "/></g></g></g><g fill="#ffffff" fill-opacity="1"><g transform="translate(149.12045, 236.792839)"><g><path d="M 3.234375 0.28125 C 2.328125 0.28125 1.640625 -0.00390625 1.171875 -0.578125 C 0.703125 -1.160156 0.46875 -1.914062 0.46875 -2.84375 C 0.46875 -3.25 0.503906 -3.617188 0.578125 -3.953125 C 0.722656 -4.765625 1.015625 -5.488281 1.453125 -6.125 C 1.898438 -6.769531 2.4375 -7.269531 3.0625 -7.625 C 3.695312 -7.976562 4.375 -8.15625 5.09375 -8.15625 C 6.007812 -8.15625 6.707031 -7.878906 7.1875 -7.328125 C 7.675781 -6.773438 7.921875 -6.035156 7.921875 -5.109375 C 7.921875 -4.742188 7.878906 -4.359375 7.796875 -3.953125 C 7.617188 -3.046875 7.289062 -2.273438 6.8125 -1.640625 C 6.34375 -1.015625 5.789062 -0.535156 5.15625 -0.203125 C 4.53125 0.117188 3.890625 0.28125 3.234375 0.28125 Z M 3.921875 -0.21875 C 4.359375 -0.21875 4.738281 -0.46875 5.0625 -0.96875 C 5.382812 -1.476562 5.617188 -2.171875 5.765625 -3.046875 C 5.859375 -3.578125 5.90625 -4.113281 5.90625 -4.65625 C 5.90625 -5.550781 5.769531 -6.273438 5.5 -6.828125 C 5.238281 -7.390625 4.878906 -7.671875 4.421875 -7.671875 C 4.003906 -7.671875 3.632812 -7.429688 3.3125 -6.953125 C 3 -6.472656 2.757812 -5.765625 2.59375 -4.828125 C 2.5 -4.296875 2.453125 -3.757812 2.453125 -3.21875 C 2.453125 -2.320312 2.582031 -1.597656 2.84375 -1.046875 C 3.101562 -0.492188 3.460938 -0.21875 3.921875 -0.21875 Z M 3.921875 -0.21875 "/></g></g></g><g fill="#ffffff" fill-opacity="1"><g transform="translate(163.596831, 236.792839)"><g><path d="M 9.125 -1.578125 C 9.144531 -1.597656 9.164062 -1.609375 9.1875 -1.609375 C 9.226562 -1.609375 9.257812 -1.582031 9.28125 -1.53125 C 9.3125 -1.488281 9.3125 -1.445312 9.28125 -1.40625 C 8.820312 -0.863281 8.410156 -0.460938 8.046875 -0.203125 C 7.679688 0.0546875 7.3125 0.1875 6.9375 0.1875 C 6.28125 0.1875 5.953125 -0.195312 5.953125 -0.96875 C 5.953125 -1.164062 5.984375 -1.453125 6.046875 -1.828125 L 6.640625 -5.078125 C 6.710938 -5.453125 6.75 -5.757812 6.75 -6 C 6.75 -6.664062 6.53125 -7 6.09375 -7 C 5.707031 -7 5.3125 -6.75 4.90625 -6.25 C 4.5 -5.75 4.113281 -5.019531 3.75 -4.0625 C 3.394531 -3.113281 3.09375 -1.972656 2.84375 -0.640625 L 2.78125 -0.25 C 2.707031 0.0195312 2.328125 0.15625 1.640625 0.15625 C 1.191406 0.15625 0.96875 0.101562 0.96875 0 L 1.046875 -0.421875 C 1.179688 -1.066406 1.253906 -1.429688 1.265625 -1.515625 L 2.109375 -6.078125 C 2.128906 -6.203125 2.140625 -6.351562 2.140625 -6.53125 C 2.140625 -6.894531 2.023438 -7.078125 1.796875 -7.078125 C 1.515625 -7.078125 1.117188 -6.804688 0.609375 -6.265625 C 0.597656 -6.242188 0.578125 -6.234375 0.546875 -6.234375 C 0.503906 -6.234375 0.46875 -6.253906 0.4375 -6.296875 C 0.414062 -6.347656 0.421875 -6.394531 0.453125 -6.4375 C 0.941406 -7.007812 1.378906 -7.425781 1.765625 -7.6875 C 2.160156 -7.945312 2.550781 -8.078125 2.9375 -8.078125 C 3.582031 -8.078125 3.90625 -7.71875 3.90625 -7 C 3.90625 -6.789062 3.882812 -6.5625 3.84375 -6.3125 L 3.515625 -4.453125 C 3.992188 -5.640625 4.539062 -6.550781 5.15625 -7.1875 C 5.78125 -7.832031 6.441406 -8.15625 7.140625 -8.15625 C 8.078125 -8.15625 8.546875 -7.59375 8.546875 -6.46875 C 8.546875 -6.207031 8.515625 -5.875 8.453125 -5.46875 L 7.765625 -1.828125 C 7.722656 -1.617188 7.703125 -1.453125 7.703125 -1.328125 C 7.703125 -1.015625 7.8125 -0.859375 8.03125 -0.859375 C 8.175781 -0.859375 8.332031 -0.921875 8.5 -1.046875 C 8.664062 -1.171875 8.875 -1.347656 9.125 -1.578125 Z M 9.125 -1.578125 "/></g></g></g><g fill="#ffffff" fill-opacity="1"><g transform="translate(179.442591, 236.792839)"><g><path d="M 6.21875 -7.890625 C 6.3125 -7.890625 6.359375 -7.828125 6.359375 -7.703125 C 6.359375 -7.597656 6.28125 -7.4375 6.125 -7.21875 C 5.96875 -7 5.820312 -6.890625 5.6875 -6.890625 C 5.644531 -6.890625 5.421875 -6.921875 5.015625 -6.984375 C 4.617188 -7.054688 4.164062 -7.109375 3.65625 -7.140625 L 2.796875 -2.265625 C 2.773438 -2.046875 2.765625 -1.898438 2.765625 -1.828125 C 2.765625 -1.492188 2.847656 -1.25 3.015625 -1.09375 C 3.179688 -0.945312 3.441406 -0.875 3.796875 -0.875 C 4.316406 -0.875 4.890625 -1.128906 5.515625 -1.640625 L 5.546875 -1.640625 C 5.597656 -1.640625 5.644531 -1.617188 5.6875 -1.578125 C 5.726562 -1.535156 5.726562 -1.492188 5.6875 -1.453125 C 5.0625 -0.847656 4.503906 -0.410156 4.015625 -0.140625 C 3.535156 0.117188 3.054688 0.25 2.578125 0.25 C 1.472656 0.25 0.921875 -0.25 0.921875 -1.25 C 0.921875 -1.445312 0.941406 -1.671875 0.984375 -1.921875 L 1.78125 -6.265625 C 1.820312 -6.492188 1.84375 -6.679688 1.84375 -6.828125 C 1.84375 -7.035156 1.785156 -7.171875 1.671875 -7.234375 C 1.566406 -7.304688 1.367188 -7.34375 1.078125 -7.34375 C 1.035156 -7.34375 1.015625 -7.390625 1.015625 -7.484375 C 1.015625 -7.609375 1.035156 -7.671875 1.078125 -7.671875 C 2.171875 -7.671875 3.039062 -8.269531 3.6875 -9.46875 C 3.707031 -9.507812 3.753906 -9.53125 3.828125 -9.53125 C 3.890625 -9.53125 3.945312 -9.515625 4 -9.484375 C 4.0625 -9.460938 4.082031 -9.4375 4.0625 -9.40625 L 3.765625 -7.734375 C 4.148438 -7.742188 4.476562 -7.757812 4.75 -7.78125 C 5.019531 -7.800781 5.25 -7.816406 5.4375 -7.828125 C 5.789062 -7.867188 6.050781 -7.890625 6.21875 -7.890625 Z M 6.21875 -7.890625 "/></g></g></g><g fill="#ffffff" fill-opacity="1"><g transform="translate(191.732074, 236.792839)"><g><path d="M 8.484375 -1.578125 C 8.503906 -1.585938 8.523438 -1.59375 8.546875 -1.59375 C 8.585938 -1.59375 8.617188 -1.566406 8.640625 -1.515625 C 8.671875 -1.472656 8.675781 -1.4375 8.65625 -1.40625 C 7.78125 -0.34375 7.015625 0.1875 6.359375 0.1875 C 6.003906 0.1875 5.742188 0.0859375 5.578125 -0.109375 C 5.421875 -0.304688 5.34375 -0.617188 5.34375 -1.046875 C 5.34375 -1.273438 5.363281 -1.535156 5.40625 -1.828125 L 5.640625 -3.21875 C 5.128906 -2.125 4.515625 -1.269531 3.796875 -0.65625 C 3.078125 -0.0390625 2.378906 0.265625 1.703125 0.265625 C 1.273438 0.265625 0.9375 0.132812 0.6875 -0.125 C 0.445312 -0.382812 0.328125 -0.769531 0.328125 -1.28125 C 0.328125 -2.195312 0.628906 -3.195312 1.234375 -4.28125 C 1.835938 -5.363281 2.585938 -6.28125 3.484375 -7.03125 C 4.378906 -7.78125 5.222656 -8.15625 6.015625 -8.15625 C 6.253906 -8.15625 6.503906 -8.109375 6.765625 -8.015625 C 7.035156 -7.929688 7.269531 -7.800781 7.46875 -7.625 C 7.726562 -7.820312 7.9375 -8.054688 8.09375 -8.328125 C 8.125 -8.347656 8.15625 -8.359375 8.1875 -8.359375 C 8.226562 -8.359375 8.265625 -8.34375 8.296875 -8.3125 C 8.335938 -8.289062 8.351562 -8.273438 8.34375 -8.265625 L 7.15625 -1.828125 C 7.113281 -1.640625 7.09375 -1.476562 7.09375 -1.34375 C 7.09375 -1.019531 7.191406 -0.859375 7.390625 -0.859375 C 7.640625 -0.859375 8.003906 -1.097656 8.484375 -1.578125 Z M 3 -1.234375 C 3.414062 -1.234375 3.835938 -1.445312 4.265625 -1.875 C 4.691406 -2.300781 5.066406 -2.820312 5.390625 -3.4375 C 5.710938 -4.0625 5.921875 -4.640625 6.015625 -5.171875 C 6.054688 -5.398438 6.078125 -5.601562 6.078125 -5.78125 C 6.078125 -6.21875 5.976562 -6.554688 5.78125 -6.796875 C 5.582031 -7.035156 5.304688 -7.15625 4.953125 -7.15625 C 4.328125 -7.15625 3.769531 -6.816406 3.28125 -6.140625 C 2.800781 -5.472656 2.460938 -4.597656 2.265625 -3.515625 C 2.203125 -3.078125 2.171875 -2.75 2.171875 -2.53125 C 2.171875 -2.082031 2.242188 -1.753906 2.390625 -1.546875 C 2.546875 -1.335938 2.75 -1.234375 3 -1.234375 Z M 3 -1.234375 "/></g></g></g><g fill="#ffffff" fill-opacity="1"><g transform="translate(206.944246, 236.792839)"><g><path d="M 7.421875 -1.828125 C 7.378906 -1.617188 7.359375 -1.453125 7.359375 -1.328125 C 7.359375 -1.015625 7.460938 -0.859375 7.671875 -0.859375 C 7.804688 -0.859375 7.957031 -0.921875 8.125 -1.046875 C 8.300781 -1.171875 8.507812 -1.347656 8.75 -1.578125 C 8.78125 -1.597656 8.804688 -1.609375 8.828125 -1.609375 C 8.867188 -1.609375 8.90625 -1.582031 8.9375 -1.53125 C 8.96875 -1.488281 8.960938 -1.445312 8.921875 -1.40625 C 8.453125 -0.863281 8.039062 -0.460938 7.6875 -0.203125 C 7.332031 0.0546875 6.960938 0.1875 6.578125 0.1875 C 5.929688 0.1875 5.609375 -0.203125 5.609375 -0.984375 C 5.609375 -1.253906 5.632812 -1.535156 5.6875 -1.828125 L 5.953125 -3.234375 C 5.390625 -2.128906 4.789062 -1.269531 4.15625 -0.65625 C 3.53125 -0.0390625 2.878906 0.265625 2.203125 0.265625 C 1.691406 0.265625 1.257812 0.0976562 0.90625 -0.234375 C 0.5625 -0.566406 0.390625 -1.078125 0.390625 -1.765625 C 0.390625 -2.035156 0.414062 -2.304688 0.46875 -2.578125 C 0.644531 -3.535156 1.03125 -4.441406 1.625 -5.296875 C 2.226562 -6.148438 2.925781 -6.835938 3.71875 -7.359375 C 4.507812 -7.890625 5.273438 -8.15625 6.015625 -8.15625 C 6.328125 -8.15625 6.597656 -8.109375 6.828125 -8.015625 L 7.5625 -12.046875 C 7.601562 -12.316406 7.625 -12.539062 7.625 -12.71875 C 7.625 -13.113281 7.492188 -13.3125 7.234375 -13.3125 C 7.078125 -13.3125 6.789062 -13.21875 6.375 -13.03125 L 6.359375 -13.03125 C 6.296875 -13.03125 6.253906 -13.066406 6.234375 -13.140625 C 6.222656 -13.210938 6.242188 -13.257812 6.296875 -13.28125 L 9.46875 -14.828125 L 9.515625 -14.828125 C 9.566406 -14.828125 9.613281 -14.804688 9.65625 -14.765625 C 9.707031 -14.722656 9.726562 -14.691406 9.71875 -14.671875 Z M 3.234375 -1.171875 C 3.671875 -1.171875 4.097656 -1.375 4.515625 -1.78125 C 4.929688 -2.1875 5.289062 -2.6875 5.59375 -3.28125 C 5.894531 -3.875 6.117188 -4.4375 6.265625 -4.96875 L 6.359375 -5.515625 C 6.410156 -6.035156 6.285156 -6.4375 5.984375 -6.71875 C 5.691406 -7.007812 5.3125 -7.15625 4.84375 -7.15625 C 3.507812 -7.15625 2.648438 -6 2.265625 -3.6875 C 2.210938 -3.351562 2.1875 -3.015625 2.1875 -2.671875 C 2.1875 -1.671875 2.535156 -1.171875 3.234375 -1.171875 Z M 3.234375 -1.171875 "/></g></g></g><g fill="#ffffff" fill-opacity="1"><g transform="translate(222.279044, 236.792839)"><g><path d="M 3.234375 0.28125 C 2.328125 0.28125 1.640625 -0.00390625 1.171875 -0.578125 C 0.703125 -1.160156 0.46875 -1.914062 0.46875 -2.84375 C 0.46875 -3.25 0.503906 -3.617188 0.578125 -3.953125 C 0.722656 -4.765625 1.015625 -5.488281 1.453125 -6.125 C 1.898438 -6.769531 2.4375 -7.269531 3.0625 -7.625 C 3.695312 -7.976562 4.375 -8.15625 5.09375 -8.15625 C 6.007812 -8.15625 6.707031 -7.878906 7.1875 -7.328125 C 7.675781 -6.773438 7.921875 -6.035156 7.921875 -5.109375 C 7.921875 -4.742188 7.878906 -4.359375 7.796875 -3.953125 C 7.617188 -3.046875 7.289062 -2.273438 6.8125 -1.640625 C 6.34375 -1.015625 5.789062 -0.535156 5.15625 -0.203125 C 4.53125 0.117188 3.890625 0.28125 3.234375 0.28125 Z M 3.921875 -0.21875 C 4.359375 -0.21875 4.738281 -0.46875 5.0625 -0.96875 C 5.382812 -1.476562 5.617188 -2.171875 5.765625 -3.046875 C 5.859375 -3.578125 5.90625 -4.113281 5.90625 -4.65625 C 5.90625 -5.550781 5.769531 -6.273438 5.5 -6.828125 C 5.238281 -7.390625 4.878906 -7.671875 4.421875 -7.671875 C 4.003906 -7.671875 3.632812 -7.429688 3.3125 -6.953125 C 3 -6.472656 2.757812 -5.765625 2.59375 -4.828125 C 2.5 -4.296875 2.453125 -3.757812 2.453125 -3.21875 C 2.453125 -2.320312 2.582031 -1.597656 2.84375 -1.046875 C 3.101562 -0.492188 3.460938 -0.21875 3.921875 -0.21875 Z M 3.921875 -0.21875 "/></g></g></g><g fill="#ffffff" fill-opacity="1"><g transform="translate(236.755427, 236.792839)"><g><path d="M 6.078125 -8.078125 C 6.429688 -8.078125 6.765625 -7.945312 7.078125 -7.6875 C 7.398438 -7.425781 7.535156 -7.132812 7.484375 -6.8125 C 7.453125 -6.601562 7.351562 -6.410156 7.1875 -6.234375 C 7.03125 -6.054688 6.828125 -5.96875 6.578125 -5.96875 C 6.335938 -5.96875 6.070312 -6.082031 5.78125 -6.3125 C 5.6875 -6.382812 5.59375 -6.445312 5.5 -6.5 C 5.40625 -6.550781 5.3125 -6.578125 5.21875 -6.578125 C 4.988281 -6.578125 4.703125 -6.21875 4.359375 -5.5 C 4.015625 -4.78125 3.6875 -3.914062 3.375 -2.90625 C 3.070312 -1.90625 2.851562 -1.023438 2.71875 -0.265625 L 2.71875 -0.25 C 2.6875 -0.125 2.578125 -0.0234375 2.390625 0.046875 C 2.203125 0.117188 1.929688 0.15625 1.578125 0.15625 C 1.128906 0.15625 0.90625 0.101562 0.90625 0 C 0.914062 -0.09375 0.957031 -0.296875 1.03125 -0.609375 C 1.101562 -0.921875 1.171875 -1.222656 1.234375 -1.515625 L 2.0625 -6.078125 C 2.09375 -6.296875 2.109375 -6.4375 2.109375 -6.5 C 2.109375 -6.882812 1.984375 -7.078125 1.734375 -7.078125 C 1.460938 -7.078125 1.078125 -6.804688 0.578125 -6.265625 C 0.554688 -6.242188 0.535156 -6.234375 0.515625 -6.234375 C 0.453125 -6.234375 0.40625 -6.253906 0.375 -6.296875 C 0.351562 -6.347656 0.363281 -6.394531 0.40625 -6.4375 C 0.894531 -7.007812 1.332031 -7.425781 1.71875 -7.6875 C 2.113281 -7.945312 2.507812 -8.078125 2.90625 -8.078125 C 3.25 -8.078125 3.492188 -7.984375 3.640625 -7.796875 C 3.785156 -7.617188 3.859375 -7.351562 3.859375 -7 C 3.859375 -6.789062 3.835938 -6.5625 3.796875 -6.3125 L 3.390625 -4.0625 C 4.203125 -6.738281 5.097656 -8.078125 6.078125 -8.078125 Z M 6.078125 -8.078125 "/></g></g></g></svg>