<svg xmlns="http://www.w3.org/2000/svg" xmlns:xlink="http://www.w3.org/1999/xlink" width="500" zoomAndPan="magnify" viewBox="0 0 375 374.999991" height="500" preserveAspectRatio="xMidYMid meet" version="1.0"><defs><g/><clipPath id="dac784ae5f"><path d="M 156 109 L 216 109 L 216 189 L 156 189 Z M 156 109 " clip-rule="nonzero"/></clipPath><clipPath id="90eb7d144d"><path d="M 197.8125 109.679688 L 215.949219 120.625 L 174.96875 188.523438 L 156.835938 177.578125 Z M 197.8125 109.679688 " clip-rule="nonzero"/></clipPath><clipPath id="1cbde060b4"><path d="M 197.8125 109.679688 L 215.949219 120.625 L 174.96875 188.523438 L 156.835938 177.578125 Z M 197.8125 109.679688 " clip-rule="nonzero"/></clipPath><clipPath id="2a8d1202aa"><path d="M 158 120 L 199 120 L 199 161 L 158 161 Z M 158 120 " clip-rule="nonzero"/></clipPath><clipPath id="f0ebd2334e"><path d="M 173.921875 120.492188 L 198.628906 135.40625 L 183.4375 160.582031 L 158.726562 145.667969 Z M 173.921875 120.492188 " clip-rule="nonzero"/></clipPath><clipPath id="ad80e477cf"><path d="M 173.921875 120.492188 L 198.628906 135.40625 L 183.4375 160.582031 L 158.726562 145.667969 Z M 173.921875 120.492188 " clip-rule="nonzero"/></clipPath><clipPath id="1bbd7be599"><path d="M 187 123 L 226 123 L 226 161 L 187 161 Z M 187 123 " clip-rule="nonzero"/></clipPath><clipPath id="0c587f7edf"><path d="M 201.199219 123.179688 L 225.910156 138.09375 L 212.335938 160.582031 L 187.628906 145.667969 Z M 201.199219 123.179688 " clip-rule="nonzero"/></clipPath><clipPath id="5f37ecc419"><path d="M 201.199219 123.179688 L 225.910156 138.09375 L 212.335938 160.582031 L 187.628906 145.667969 Z M 201.199219 123.179688 " clip-rule="nonzero"/></clipPath></defs><g fill="#ffffff" fill-opacity="1"><g transform="translate(44.931339, 241.385564)"><g><path d="M 10.125 -17.703125 C 11.363281 -17.703125 12.578125 -17.460938 13.765625 -16.984375 C 14.953125 -16.503906 15.972656 -15.835938 16.828125 -14.984375 L 15.09375 -12.828125 C 14.445312 -13.515625 13.6875 -14.054688 12.8125 -14.453125 C 11.945312 -14.859375 11.066406 -15.0625 10.171875 -15.0625 C 8.410156 -15.0625 6.921875 -14.457031 5.703125 -13.25 C 4.484375 -12.050781 3.875 -10.585938 3.875 -8.859375 C 3.875 -7.117188 4.484375 -5.644531 5.703125 -4.4375 C 6.921875 -3.238281 8.410156 -2.640625 10.171875 -2.640625 C 12.003906 -2.640625 13.644531 -3.335938 15.09375 -4.734375 L 16.84375 -2.765625 C 15.9375 -1.878906 14.878906 -1.175781 13.671875 -0.65625 C 12.460938 -0.132812 11.25 0.125 10.03125 0.125 C 7.4375 0.125 5.257812 -0.734375 3.5 -2.453125 C 1.738281 -4.171875 0.859375 -6.300781 0.859375 -8.84375 C 0.859375 -11.34375 1.75 -13.441406 3.53125 -15.140625 C 5.320312 -16.847656 7.519531 -17.703125 10.125 -17.703125 Z M 10.125 -17.703125 "/></g></g></g><g fill="#ffffff" fill-opacity="1"><g transform="translate(72.561465, 241.385564)"><g><path d="M 17.609375 0 L 14.640625 0 L 14.640625 -7.296875 L 5.296875 -7.296875 L 5.296875 0 L 2.3125 0 L 2.3125 -17.625 L 5.296875 -17.625 L 5.296875 -9.96875 L 14.640625 -9.96875 L 14.640625 -17.625 L 17.609375 -17.625 Z M 17.609375 0 "/></g></g></g><g fill="#ffffff" fill-opacity="1"><g transform="translate(102.559054, 241.385564)"><g><path d="M 13.5 0 L 10.28125 -5.34375 C 10.113281 -5.320312 9.84375 -5.3125 9.46875 -5.3125 L 5.296875 -5.3125 L 5.296875 0 L 2.3125 0 L 2.3125 -17.625 L 9.46875 -17.625 C 11.71875 -17.625 13.460938 -17.097656 14.703125 -16.046875 C 15.953125 -15.003906 16.578125 -13.523438 16.578125 -11.609375 C 16.578125 -10.203125 16.257812 -9.007812 15.625 -8.03125 C 15 -7.0625 14.097656 -6.347656 12.921875 -5.890625 L 16.875 0 Z M 5.296875 -7.984375 L 9.46875 -7.984375 C 12.320312 -7.984375 13.75 -9.164062 13.75 -11.53125 C 13.75 -13.820312 12.320312 -14.96875 9.46875 -14.96875 L 5.296875 -14.96875 Z M 5.296875 -7.984375 "/></g></g></g><g fill="#ffffff" fill-opacity="1"><g transform="translate(130.84401, 241.385564)"><g><path d="M 5.296875 0 L 2.3125 0 L 2.3125 -17.625 L 5.296875 -17.625 Z M 5.296875 0 "/></g></g></g><g fill="#ffffff" fill-opacity="1"><g transform="translate(148.525744, 241.385564)"><g><path d="M 8.109375 -17.75 C 10.390625 -17.75 12.445312 -17.144531 14.28125 -15.9375 L 13.046875 -13.328125 C 11.253906 -14.421875 9.535156 -14.96875 7.890625 -14.96875 C 6.992188 -14.96875 6.289062 -14.804688 5.78125 -14.484375 C 5.269531 -14.160156 5.015625 -13.703125 5.015625 -13.109375 C 5.015625 -12.523438 5.25 -12.023438 5.71875 -11.609375 C 6.1875 -11.203125 6.769531 -10.898438 7.46875 -10.703125 C 8.175781 -10.515625 8.941406 -10.273438 9.765625 -9.984375 C 10.585938 -9.691406 11.351562 -9.378906 12.0625 -9.046875 C 12.769531 -8.722656 13.351562 -8.210938 13.8125 -7.515625 C 14.28125 -6.816406 14.515625 -5.972656 14.515625 -4.984375 C 14.515625 -3.441406 13.894531 -2.207031 12.65625 -1.28125 C 11.425781 -0.363281 9.828125 0.09375 7.859375 0.09375 C 6.515625 0.09375 5.210938 -0.15625 3.953125 -0.65625 C 2.691406 -1.15625 1.59375 -1.832031 0.65625 -2.6875 L 1.9375 -5.265625 C 2.832031 -4.441406 3.8125 -3.804688 4.875 -3.359375 C 5.9375 -2.910156 6.945312 -2.6875 7.90625 -2.6875 C 8.945312 -2.6875 9.753906 -2.875 10.328125 -3.25 C 10.910156 -3.632812 11.203125 -4.164062 11.203125 -4.84375 C 11.203125 -5.445312 10.96875 -5.953125 10.5 -6.359375 C 10.03125 -6.773438 9.441406 -7.078125 8.734375 -7.265625 C 8.035156 -7.460938 7.273438 -7.695312 6.453125 -7.96875 C 5.628906 -8.25 4.863281 -8.539062 4.15625 -8.84375 C 3.445312 -9.15625 2.859375 -9.65625 2.390625 -10.34375 C 1.921875 -11.039062 1.6875 -11.875 1.6875 -12.84375 C 1.6875 -14.34375 2.273438 -15.535156 3.453125 -16.421875 C 4.628906 -17.304688 6.179688 -17.75 8.109375 -17.75 Z M 8.109375 -17.75 "/></g></g></g><g fill="#ffffff" fill-opacity="1"><g transform="translate(174.266927, 241.385564)"><g><path d="M 14.359375 -14.96875 L 8.765625 -14.96875 L 8.765625 0 L 5.796875 0 L 5.796875 -14.96875 L 0.234375 -14.96875 L 0.234375 -17.625 L 14.359375 -17.625 Z M 14.359375 -14.96875 "/></g></g></g><g fill="#ffffff" fill-opacity="1"><g transform="translate(198.925112, 241.385564)"><g><path d="M 3.546875 -15.140625 C 5.347656 -16.847656 7.566406 -17.703125 10.203125 -17.703125 C 12.835938 -17.703125 15.050781 -16.847656 16.84375 -15.140625 C 18.644531 -13.441406 19.546875 -11.332031 19.546875 -8.8125 C 19.546875 -6.289062 18.644531 -4.171875 16.84375 -2.453125 C 15.050781 -0.734375 12.835938 0.125 10.203125 0.125 C 7.566406 0.125 5.347656 -0.734375 3.546875 -2.453125 C 1.753906 -4.171875 0.859375 -6.289062 0.859375 -8.8125 C 0.859375 -11.332031 1.753906 -13.441406 3.546875 -15.140625 Z M 10.21875 -15.03125 C 8.476562 -15.03125 6.984375 -14.429688 5.734375 -13.234375 C 4.492188 -12.035156 3.875 -10.5625 3.875 -8.8125 C 3.875 -7.070312 4.5 -5.59375 5.75 -4.375 C 7 -3.15625 8.488281 -2.546875 10.21875 -2.546875 C 11.957031 -2.546875 13.4375 -3.15625 14.65625 -4.375 C 15.882812 -5.59375 16.5 -7.070312 16.5 -8.8125 C 16.5 -10.5625 15.882812 -12.035156 14.65625 -13.234375 C 13.4375 -14.429688 11.957031 -15.03125 10.21875 -15.03125 Z M 10.21875 -15.03125 "/></g></g></g><g fill="#ffffff" fill-opacity="1"><g transform="translate(229.401214, 241.385564)"><g><path d="M 2.3125 -17.625 L 9.34375 -17.625 C 11.5625 -17.625 13.28125 -17.097656 14.5 -16.046875 C 15.71875 -15.003906 16.328125 -13.523438 16.328125 -11.609375 C 16.328125 -9.609375 15.71875 -8.054688 14.5 -6.953125 C 13.28125 -5.859375 11.5625 -5.3125 9.34375 -5.3125 L 5.296875 -5.3125 L 5.296875 0 L 2.3125 0 Z M 5.296875 -14.96875 L 5.296875 -7.984375 L 9.21875 -7.984375 C 12.050781 -7.984375 13.46875 -9.164062 13.46875 -11.53125 C 13.46875 -13.820312 12.050781 -14.96875 9.21875 -14.96875 Z M 5.296875 -14.96875 "/></g></g></g><g fill="#ffffff" fill-opacity="1"><g transform="translate(256.426862, 241.385564)"><g><path d="M 17.609375 0 L 14.640625 0 L 14.640625 -7.296875 L 5.296875 -7.296875 L 5.296875 0 L 2.3125 0 L 2.3125 -17.625 L 5.296875 -17.625 L 5.296875 -9.96875 L 14.640625 -9.96875 L 14.640625 -17.625 L 17.609375 -17.625 Z M 17.609375 0 "/></g></g></g><g fill="#ffffff" fill-opacity="1"><g transform="translate(286.424445, 241.385564)"><g><path d="M 14.90625 -14.96875 L 5.296875 -14.96875 L 5.296875 -10.203125 L 13.90625 -10.203125 L 13.90625 -7.53125 L 5.296875 -7.53125 L 5.296875 -2.671875 L 15.21875 -2.671875 L 15.21875 0 L 2.3125 0 L 2.3125 -17.625 L 14.90625 -17.625 Z M 14.90625 -14.96875 "/></g></g></g><g fill="#ffffff" fill-opacity="1"><g transform="translate(313.021935, 241.385564)"><g><path d="M 13.5 0 L 10.28125 -5.34375 C 10.113281 -5.320312 9.84375 -5.3125 9.46875 -5.3125 L 5.296875 -5.3125 L 5.296875 0 L 2.3125 0 L 2.3125 -17.625 L 9.46875 -17.625 C 11.71875 -17.625 13.460938 -17.097656 14.703125 -16.046875 C 15.953125 -15.003906 16.578125 -13.523438 16.578125 -11.609375 C 16.578125 -10.203125 16.257812 -9.007812 15.625 -8.03125 C 15 -7.0625 14.097656 -6.347656 12.921875 -5.890625 L 16.875 0 Z M 5.296875 -7.984375 L 9.46875 -7.984375 C 12.320312 -7.984375 13.75 -9.164062 13.75 -11.53125 C 13.75 -13.820312 12.320312 -14.96875 9.46875 -14.96875 L 5.296875 -14.96875 Z M 5.296875 -7.984375 "/></g></g></g><g fill="#ffffff" fill-opacity="1"><g transform="translate(77.386731, 275.630707)"><g><path d="M 14.90625 -14.96875 L 5.296875 -14.96875 L 5.296875 -10.203125 L 13.90625 -10.203125 L 13.90625 -7.53125 L 5.296875 -7.53125 L 5.296875 -2.671875 L 15.21875 -2.671875 L 15.21875 0 L 2.3125 0 L 2.3125 -17.625 L 14.90625 -17.625 Z M 14.90625 -14.96875 "/></g></g></g><g fill="#ffffff" fill-opacity="1"><g transform="translate(103.984229, 275.630707)"><g><path d="M 20.953125 0 L 18.203125 0 L 18.1875 -13.171875 L 12.625 -1.84375 L 10.671875 -1.84375 L 5.109375 -13.171875 L 5.109375 0 L 2.3125 0 L 2.3125 -17.625 L 5.84375 -17.625 L 11.65625 -5.921875 L 17.453125 -17.625 L 20.953125 -17.625 Z M 20.953125 0 "/></g></g></g><g fill="#ffffff" fill-opacity="1"><g transform="translate(137.356701, 275.630707)"><g><path d="M 20.953125 0 L 18.203125 0 L 18.1875 -13.171875 L 12.625 -1.84375 L 10.671875 -1.84375 L 5.109375 -13.171875 L 5.109375 0 L 2.3125 0 L 2.3125 -17.625 L 5.84375 -17.625 L 11.65625 -5.921875 L 17.453125 -17.625 L 20.953125 -17.625 Z M 20.953125 0 "/></g></g></g><g fill="#ffffff" fill-opacity="1"><g transform="translate(170.729172, 275.630707)"><g><path d="M 13.703125 -3.984375 L 4.8125 -3.984375 L 3.125 0 L 0.03125 0 L 7.8125 -17.625 L 10.859375 -17.625 L 18.5625 0 L 15.390625 0 Z M 12.5625 -6.625 L 9.25 -14.453125 L 5.921875 -6.625 Z M 12.5625 -6.625 "/></g></g></g><g fill="#ffffff" fill-opacity="1"><g transform="translate(199.391909, 275.630707)"><g><path d="M 17.609375 0 L 14.6875 0 L 5.296875 -12.640625 L 5.296875 0 L 2.3125 0 L 2.3125 -17.625 L 5.234375 -17.625 L 14.6875 -4.96875 L 14.6875 -17.625 L 17.609375 -17.625 Z M 17.609375 0 "/></g></g></g><g fill="#ffffff" fill-opacity="1"><g transform="translate(229.414672, 275.630707)"><g><path d="M 17.296875 -17.625 L 17.296875 -7.296875 C 17.296875 -5.003906 16.613281 -3.191406 15.25 -1.859375 C 13.894531 -0.535156 12.023438 0.125 9.640625 0.125 C 7.253906 0.125 5.378906 -0.535156 4.015625 -1.859375 C 2.648438 -3.191406 1.96875 -5.003906 1.96875 -7.296875 L 1.96875 -17.625 L 4.9375 -17.625 L 4.9375 -7.296875 C 4.9375 -5.828125 5.359375 -4.664062 6.203125 -3.8125 C 7.054688 -2.96875 8.210938 -2.546875 9.671875 -2.546875 C 11.117188 -2.546875 12.253906 -2.960938 13.078125 -3.796875 C 13.910156 -4.640625 14.328125 -5.804688 14.328125 -7.296875 L 14.328125 -17.625 Z M 17.296875 -17.625 "/></g></g></g><g fill="#ffffff" fill-opacity="1"><g transform="translate(258.732232, 275.630707)"><g><path d="M 14.90625 -14.96875 L 5.296875 -14.96875 L 5.296875 -10.203125 L 13.90625 -10.203125 L 13.90625 -7.53125 L 5.296875 -7.53125 L 5.296875 -2.671875 L 15.21875 -2.671875 L 15.21875 0 L 2.3125 0 L 2.3125 -17.625 L 14.90625 -17.625 Z M 14.90625 -14.96875 "/></g></g></g><g fill="#ffffff" fill-opacity="1"><g transform="translate(285.329723, 275.630707)"><g><path d="M 5.296875 -2.6875 L 12.921875 -2.6875 L 12.921875 0 L 2.3125 0 L 2.3125 -17.625 L 5.296875 -17.625 Z M 5.296875 -2.6875 "/></g></g></g><g fill="#ffffff" fill-opacity="1"><g transform="translate(129.339694, 147.709537)"><g><path d="M 49.109375 -76.75 C 54.421875 -76.75 58.765625 -76.363281 62.140625 -75.59375 C 65.523438 -74.832031 69.109375 -73.488281 72.890625 -71.5625 C 73.367188 -71.238281 73.664062 -70.972656 73.78125 -70.765625 C 73.90625 -70.566406 74.007812 -69.945312 74.09375 -68.90625 L 75.546875 -55.140625 C 75.546875 -54.898438 75.320312 -54.757812 74.875 -54.71875 C 74.4375 -54.6875 74.175781 -54.789062 74.09375 -55.03125 C 72.320312 -61.707031 69.382812 -66.710938 65.28125 -70.046875 C 61.175781 -73.390625 55.785156 -75.0625 49.109375 -75.0625 C 42.035156 -75.0625 35.820312 -73.570312 30.46875 -70.59375 C 25.113281 -67.613281 20.96875 -63.367188 18.03125 -57.859375 C 15.101562 -52.347656 13.640625 -45.929688 13.640625 -38.609375 C 13.640625 -31.773438 15.265625 -25.398438 18.515625 -19.484375 C 21.773438 -13.578125 26.160156 -8.875 31.671875 -5.375 C 37.179688 -1.875 43.078125 -0.125 49.359375 -0.125 C 62.710938 -0.125 71.238281 -6.679688 74.9375 -19.796875 C 74.9375 -19.953125 75.140625 -20.03125 75.546875 -20.03125 C 76.109375 -20.03125 76.390625 -19.910156 76.390625 -19.671875 L 75.421875 -6.875 C 75.335938 -5.914062 75.210938 -5.3125 75.046875 -5.0625 C 74.890625 -4.820312 74.570312 -4.539062 74.09375 -4.21875 C 69.90625 -2.050781 65.984375 -0.546875 62.328125 0.296875 C 58.671875 1.140625 54.304688 1.5625 49.234375 1.5625 C 40.867188 1.5625 33.40625 -0.101562 26.84375 -3.4375 C 20.289062 -6.78125 15.160156 -11.488281 11.453125 -17.5625 C 7.753906 -23.632812 5.90625 -30.613281 5.90625 -38.5 C 5.90625 -46.0625 7.753906 -52.738281 11.453125 -58.53125 C 15.160156 -64.320312 20.289062 -68.804688 26.84375 -71.984375 C 33.40625 -75.160156 40.828125 -76.75 49.109375 -76.75 Z M 49.109375 -76.75 "/></g></g></g><g fill="#ffffff" fill-opacity="1"><g transform="translate(183.490729, 206.637402)"><g><path d="M 56.71875 -17.625 C 56.71875 -17.863281 56.957031 -17.960938 57.4375 -17.921875 C 57.914062 -17.878906 58.15625 -17.738281 58.15625 -17.5 C 57.4375 -12.425781 57.078125 -7.195312 57.078125 -1.8125 C 57.078125 -1.164062 56.9375 -0.703125 56.65625 -0.421875 C 56.375 -0.140625 55.867188 0 55.140625 0 L 5.3125 0 C 5.144531 0 5.0625 -0.238281 5.0625 -0.71875 C 5.0625 -1.207031 5.144531 -1.453125 5.3125 -1.453125 C 8.445312 -1.453125 10.757812 -1.648438 12.25 -2.046875 C 13.738281 -2.453125 14.742188 -3.238281 15.265625 -4.40625 C 15.785156 -5.570312 16.046875 -7.363281 16.046875 -9.78125 L 16.046875 -65.640625 C 16.046875 -68.054688 15.785156 -69.828125 15.265625 -70.953125 C 14.742188 -72.078125 13.738281 -72.859375 12.25 -73.296875 C 10.757812 -73.742188 8.445312 -73.96875 5.3125 -73.96875 C 5.144531 -73.96875 5.0625 -74.207031 5.0625 -74.6875 C 5.0625 -75.175781 5.144531 -75.421875 5.3125 -75.421875 L 53.09375 -75.421875 C 53.820312 -75.421875 54.1875 -75.054688 54.1875 -74.328125 L 54.421875 -59.734375 C 54.421875 -59.492188 54.195312 -59.375 53.75 -59.375 C 53.3125 -59.375 53.09375 -59.492188 53.09375 -59.734375 C 53.09375 -63.835938 52.003906 -67.09375 49.828125 -69.5 C 47.660156 -71.914062 44.804688 -73.125 41.265625 -73.125 L 32.9375 -73.125 C 29.882812 -73.125 27.632812 -72.921875 26.1875 -72.515625 C 24.738281 -72.117188 23.75 -71.359375 23.21875 -70.234375 C 22.695312 -69.109375 22.4375 -67.335938 22.4375 -64.921875 L 22.4375 -40.421875 L 38.375 -40.421875 C 42.070312 -40.421875 44.644531 -41.046875 46.09375 -42.296875 C 47.539062 -43.546875 48.265625 -45.695312 48.265625 -48.75 C 48.265625 -48.914062 48.503906 -49 48.984375 -49 C 49.472656 -49 49.71875 -48.914062 49.71875 -48.75 L 49.59375 -39.21875 C 49.59375 -36.882812 49.632812 -35.15625 49.71875 -34.03125 L 49.84375 -28.359375 C 49.84375 -28.191406 49.597656 -28.109375 49.109375 -28.109375 C 48.628906 -28.109375 48.390625 -28.191406 48.390625 -28.359375 C 48.390625 -31.972656 47.625 -34.503906 46.09375 -35.953125 C 44.5625 -37.398438 41.867188 -38.125 38.015625 -38.125 L 22.4375 -38.125 L 22.4375 -10.25 C 22.4375 -7.914062 22.695312 -6.207031 23.21875 -5.125 C 23.75 -4.039062 24.71875 -3.296875 26.125 -2.890625 C 27.53125 -2.492188 29.800781 -2.296875 32.9375 -2.296875 L 44.046875 -2.296875 C 47.265625 -2.296875 50.019531 -3.703125 52.3125 -6.515625 C 54.601562 -9.328125 56.070312 -13.03125 56.71875 -17.625 Z M 56.71875 -17.625 "/></g></g></g><g clip-path="url(#dac784ae5f)"><g clip-path="url(#90eb7d144d)"><g clip-path="url(#1cbde060b4)"><path fill="#184341" d="M 197.8125 109.679688 L 215.949219 120.625 L 174.96875 188.523438 L 156.835938 177.578125 Z M 197.8125 109.679688 " fill-opacity="1" fill-rule="nonzero"/></g></g></g><g clip-path="url(#2a8d1202aa)"><g clip-path="url(#f0ebd2334e)"><g clip-path="url(#ad80e477cf)"><path fill="#184341" d="M 173.921875 120.492188 L 198.628906 135.40625 L 183.4375 160.582031 L 158.726562 145.667969 Z M 173.921875 120.492188 " fill-opacity="1" fill-rule="nonzero"/></g></g></g><g clip-path="url(#1bbd7be599)"><g clip-path="url(#0c587f7edf)"><g clip-path="url(#5f37ecc419)"><path fill="#184341" d="M 201.199219 123.179688 L 225.910156 138.09375 L 212.335938 160.582031 L 187.628906 145.667969 Z M 201.199219 123.179688 " fill-opacity="1" fill-rule="nonzero"/></g></g></g><path stroke-linecap="butt" transform="matrix(0.432243, -0.615447, 0.613753, 0.431053, 149.631967, 197.735656)" fill="none" stroke-linejoin="miter" d="M -0.00108518 1.001373 L 175.530545 0.999469 " stroke="#ffffff" stroke-width="2" stroke-opacity="1" stroke-miterlimit="4"/><g fill="#ffffff" fill-opacity="1"><g transform="translate(134.709152, 316.538567)"><g><path d="M 6.046875 0.21875 C 4.296875 0.21875 3.015625 -0.234375 2.203125 -1.140625 C 1.398438 -2.054688 1 -3.191406 1 -4.546875 C 1 -4.953125 1.039062 -5.40625 1.125 -5.90625 C 1.351562 -7.15625 1.828125 -8.238281 2.546875 -9.15625 C 3.265625 -10.082031 4.125 -10.785156 5.125 -11.265625 C 6.125 -11.753906 7.160156 -12 8.234375 -12 C 8.734375 -12 9.25 -11.945312 9.78125 -11.84375 C 10.320312 -11.738281 10.742188 -11.609375 11.046875 -11.453125 C 11.117188 -11.398438 11.164062 -11.347656 11.1875 -11.296875 C 11.207031 -11.253906 11.207031 -11.160156 11.1875 -11.015625 L 10.890625 -8.5 C 10.890625 -8.457031 10.859375 -8.4375 10.796875 -8.4375 C 10.734375 -8.4375 10.695312 -8.457031 10.6875 -8.5 C 10.46875 -9.4375 10.078125 -10.171875 9.515625 -10.703125 C 8.960938 -11.234375 8.273438 -11.5 7.453125 -11.5 C 6.359375 -11.5 5.4375 -11.054688 4.6875 -10.171875 C 3.9375 -9.296875 3.457031 -8.082031 3.25 -6.53125 C 3.175781 -6 3.140625 -5.484375 3.140625 -4.984375 C 3.140625 -4.066406 3.253906 -3.242188 3.484375 -2.515625 C 3.722656 -1.785156 4.070312 -1.207031 4.53125 -0.78125 C 5 -0.363281 5.539062 -0.15625 6.15625 -0.15625 C 6.78125 -0.15625 7.421875 -0.382812 8.078125 -0.84375 C 8.734375 -1.3125 9.425781 -2.035156 10.15625 -3.015625 C 10.164062 -3.046875 10.191406 -3.0625 10.234375 -3.0625 C 10.265625 -3.0625 10.296875 -3.050781 10.328125 -3.03125 C 10.359375 -3.007812 10.367188 -2.988281 10.359375 -2.96875 L 9.859375 -0.796875 C 9.816406 -0.640625 9.773438 -0.53125 9.734375 -0.46875 C 9.703125 -0.414062 9.628906 -0.378906 9.515625 -0.359375 C 8.378906 0.0234375 7.222656 0.21875 6.046875 0.21875 Z M 6.046875 0.21875 "/></g></g></g><g fill="#ffffff" fill-opacity="1"><g transform="translate(151.47598, 316.538567)"><g><path d="M 2.984375 0.265625 C 2.148438 0.265625 1.515625 0 1.078125 -0.53125 C 0.648438 -1.070312 0.4375 -1.769531 0.4375 -2.625 C 0.4375 -3 0.46875 -3.335938 0.53125 -3.640625 C 0.664062 -4.398438 0.9375 -5.070312 1.34375 -5.65625 C 1.757812 -6.25 2.253906 -6.707031 2.828125 -7.03125 C 3.410156 -7.363281 4.035156 -7.53125 4.703125 -7.53125 C 5.546875 -7.53125 6.1875 -7.273438 6.625 -6.765625 C 7.070312 -6.253906 7.296875 -5.570312 7.296875 -4.71875 C 7.296875 -4.375 7.257812 -4.015625 7.1875 -3.640625 C 7.03125 -2.804688 6.734375 -2.097656 6.296875 -1.515625 C 5.859375 -0.929688 5.347656 -0.488281 4.765625 -0.1875 C 4.179688 0.113281 3.585938 0.265625 2.984375 0.265625 Z M 3.625 -0.203125 C 4.03125 -0.203125 4.378906 -0.4375 4.671875 -0.90625 C 4.960938 -1.375 5.179688 -2.007812 5.328125 -2.8125 C 5.410156 -3.300781 5.453125 -3.796875 5.453125 -4.296875 C 5.453125 -5.117188 5.328125 -5.785156 5.078125 -6.296875 C 4.835938 -6.816406 4.503906 -7.078125 4.078125 -7.078125 C 3.703125 -7.078125 3.363281 -6.851562 3.0625 -6.40625 C 2.769531 -5.96875 2.546875 -5.316406 2.390625 -4.453125 C 2.304688 -3.960938 2.265625 -3.46875 2.265625 -2.96875 C 2.265625 -2.144531 2.382812 -1.476562 2.625 -0.96875 C 2.863281 -0.457031 3.195312 -0.203125 3.625 -0.203125 Z M 3.625 -0.203125 "/></g></g></g><g fill="#ffffff" fill-opacity="1"><g transform="translate(164.845239, 316.538567)"><g><path d="M 8.421875 -1.453125 C 8.441406 -1.472656 8.457031 -1.484375 8.46875 -1.484375 C 8.507812 -1.484375 8.539062 -1.460938 8.5625 -1.421875 C 8.59375 -1.378906 8.59375 -1.335938 8.5625 -1.296875 C 8.132812 -0.796875 7.753906 -0.425781 7.421875 -0.1875 C 7.085938 0.0507812 6.75 0.171875 6.40625 0.171875 C 5.800781 0.171875 5.5 -0.179688 5.5 -0.890625 C 5.5 -1.078125 5.53125 -1.34375 5.59375 -1.6875 L 6.140625 -4.6875 C 6.203125 -5.03125 6.234375 -5.3125 6.234375 -5.53125 C 6.234375 -6.144531 6.03125 -6.453125 5.625 -6.453125 C 5.269531 -6.453125 4.90625 -6.222656 4.53125 -5.765625 C 4.15625 -5.304688 3.800781 -4.632812 3.46875 -3.75 C 3.132812 -2.875 2.851562 -1.816406 2.625 -0.578125 L 2.5625 -0.21875 C 2.5 0.03125 2.148438 0.15625 1.515625 0.15625 C 1.097656 0.15625 0.890625 0.101562 0.890625 0 L 0.96875 -0.390625 C 1.09375 -0.984375 1.160156 -1.316406 1.171875 -1.390625 L 1.9375 -5.609375 C 1.96875 -5.722656 1.984375 -5.859375 1.984375 -6.015625 C 1.984375 -6.359375 1.875 -6.53125 1.65625 -6.53125 C 1.394531 -6.53125 1.03125 -6.28125 0.5625 -5.78125 C 0.550781 -5.757812 0.535156 -5.75 0.515625 -5.75 C 0.472656 -5.75 0.4375 -5.769531 0.40625 -5.8125 C 0.382812 -5.863281 0.390625 -5.910156 0.421875 -5.953125 C 0.867188 -6.472656 1.269531 -6.851562 1.625 -7.09375 C 1.988281 -7.332031 2.351562 -7.453125 2.71875 -7.453125 C 3.3125 -7.453125 3.609375 -7.117188 3.609375 -6.453125 C 3.609375 -6.265625 3.585938 -6.054688 3.546875 -5.828125 L 3.25 -4.109375 C 3.6875 -5.203125 4.191406 -6.046875 4.765625 -6.640625 C 5.335938 -7.234375 5.945312 -7.53125 6.59375 -7.53125 C 7.457031 -7.53125 7.890625 -7.007812 7.890625 -5.96875 C 7.890625 -5.726562 7.859375 -5.421875 7.796875 -5.046875 L 7.171875 -1.6875 C 7.128906 -1.488281 7.109375 -1.335938 7.109375 -1.234375 C 7.109375 -0.941406 7.210938 -0.796875 7.421875 -0.796875 C 7.546875 -0.796875 7.6875 -0.847656 7.84375 -0.953125 C 8 -1.066406 8.191406 -1.234375 8.421875 -1.453125 Z M 8.421875 -1.453125 "/></g></g></g><g fill="#ffffff" fill-opacity="1"><g transform="translate(179.479149, 316.538567)"><g><path d="M 5.734375 -7.28125 C 5.828125 -7.28125 5.875 -7.222656 5.875 -7.109375 C 5.875 -7.015625 5.800781 -6.863281 5.65625 -6.65625 C 5.507812 -6.457031 5.375 -6.359375 5.25 -6.359375 C 5.207031 -6.359375 5 -6.390625 4.625 -6.453125 C 4.257812 -6.515625 3.84375 -6.5625 3.375 -6.59375 L 2.578125 -2.09375 C 2.554688 -1.894531 2.546875 -1.757812 2.546875 -1.6875 C 2.546875 -1.382812 2.625 -1.160156 2.78125 -1.015625 C 2.9375 -0.878906 3.179688 -0.8125 3.515625 -0.8125 C 3.992188 -0.8125 4.519531 -1.046875 5.09375 -1.515625 L 5.109375 -1.515625 C 5.160156 -1.515625 5.203125 -1.492188 5.234375 -1.453125 C 5.273438 -1.410156 5.28125 -1.375 5.25 -1.34375 C 4.664062 -0.789062 4.148438 -0.390625 3.703125 -0.140625 C 3.253906 0.0976562 2.8125 0.21875 2.375 0.21875 C 1.351562 0.21875 0.84375 -0.238281 0.84375 -1.15625 C 0.84375 -1.34375 0.863281 -1.550781 0.90625 -1.78125 L 1.640625 -5.78125 C 1.679688 -5.988281 1.703125 -6.160156 1.703125 -6.296875 C 1.703125 -6.492188 1.648438 -6.625 1.546875 -6.6875 C 1.441406 -6.75 1.257812 -6.78125 1 -6.78125 C 0.957031 -6.78125 0.9375 -6.820312 0.9375 -6.90625 C 0.9375 -7.019531 0.957031 -7.078125 1 -7.078125 C 2.007812 -7.078125 2.804688 -7.628906 3.390625 -8.734375 C 3.421875 -8.773438 3.46875 -8.796875 3.53125 -8.796875 C 3.59375 -8.796875 3.648438 -8.78125 3.703125 -8.75 C 3.753906 -8.726562 3.769531 -8.707031 3.75 -8.6875 L 3.46875 -7.140625 C 3.820312 -7.148438 4.125 -7.160156 4.375 -7.171875 C 4.625 -7.191406 4.835938 -7.210938 5.015625 -7.234375 C 5.347656 -7.265625 5.585938 -7.28125 5.734375 -7.28125 Z M 5.734375 -7.28125 "/></g></g></g><g fill="#ffffff" fill-opacity="1"><g transform="translate(190.828759, 316.538567)"><g><path d="M 7.828125 -1.453125 C 7.847656 -1.460938 7.867188 -1.46875 7.890625 -1.46875 C 7.929688 -1.46875 7.960938 -1.445312 7.984375 -1.40625 C 8.003906 -1.363281 8.003906 -1.328125 7.984375 -1.296875 C 7.179688 -0.316406 6.476562 0.171875 5.875 0.171875 C 5.539062 0.171875 5.296875 0.0820312 5.140625 -0.09375 C 4.992188 -0.28125 4.921875 -0.570312 4.921875 -0.96875 C 4.921875 -1.175781 4.941406 -1.414062 4.984375 -1.6875 L 5.203125 -2.96875 C 4.734375 -1.957031 4.164062 -1.164062 3.5 -0.59375 C 2.84375 -0.03125 2.195312 0.25 1.5625 0.25 C 1.175781 0.25 0.867188 0.128906 0.640625 -0.109375 C 0.410156 -0.347656 0.296875 -0.707031 0.296875 -1.1875 C 0.296875 -2.03125 0.578125 -2.953125 1.140625 -3.953125 C 1.703125 -4.953125 2.394531 -5.796875 3.21875 -6.484375 C 4.039062 -7.179688 4.816406 -7.53125 5.546875 -7.53125 C 5.773438 -7.53125 6.007812 -7.488281 6.25 -7.40625 C 6.5 -7.320312 6.710938 -7.203125 6.890625 -7.046875 C 7.128906 -7.210938 7.320312 -7.425781 7.46875 -7.6875 C 7.5 -7.707031 7.523438 -7.71875 7.546875 -7.71875 C 7.585938 -7.71875 7.625 -7.703125 7.65625 -7.671875 C 7.695312 -7.648438 7.710938 -7.632812 7.703125 -7.625 L 6.609375 -1.6875 C 6.566406 -1.519531 6.546875 -1.375 6.546875 -1.25 C 6.546875 -0.945312 6.632812 -0.796875 6.8125 -0.796875 C 7.050781 -0.796875 7.390625 -1.015625 7.828125 -1.453125 Z M 2.78125 -1.125 C 3.15625 -1.125 3.539062 -1.320312 3.9375 -1.71875 C 4.332031 -2.125 4.675781 -2.613281 4.96875 -3.1875 C 5.269531 -3.757812 5.460938 -4.289062 5.546875 -4.78125 C 5.585938 -4.988281 5.609375 -5.175781 5.609375 -5.34375 C 5.609375 -5.75 5.515625 -6.0625 5.328125 -6.28125 C 5.148438 -6.5 4.894531 -6.609375 4.5625 -6.609375 C 3.988281 -6.609375 3.476562 -6.296875 3.03125 -5.671875 C 2.582031 -5.046875 2.269531 -4.238281 2.09375 -3.25 C 2.03125 -2.84375 2 -2.539062 2 -2.34375 C 2 -1.925781 2.066406 -1.617188 2.203125 -1.421875 C 2.347656 -1.222656 2.539062 -1.125 2.78125 -1.125 Z M 2.78125 -1.125 "/></g></g></g><g fill="#ffffff" fill-opacity="1"><g transform="translate(204.877537, 316.538567)"><g><path d="M 6.859375 -1.6875 C 6.816406 -1.488281 6.796875 -1.335938 6.796875 -1.234375 C 6.796875 -0.941406 6.890625 -0.796875 7.078125 -0.796875 C 7.203125 -0.796875 7.34375 -0.847656 7.5 -0.953125 C 7.65625 -1.066406 7.847656 -1.234375 8.078125 -1.453125 C 8.097656 -1.472656 8.125 -1.484375 8.15625 -1.484375 C 8.1875 -1.484375 8.210938 -1.460938 8.234375 -1.421875 C 8.265625 -1.378906 8.265625 -1.335938 8.234375 -1.296875 C 7.804688 -0.796875 7.425781 -0.425781 7.09375 -0.1875 C 6.769531 0.0507812 6.429688 0.171875 6.078125 0.171875 C 5.472656 0.171875 5.171875 -0.1875 5.171875 -0.90625 C 5.171875 -1.15625 5.195312 -1.414062 5.25 -1.6875 L 5.5 -2.984375 C 4.976562 -1.960938 4.425781 -1.164062 3.84375 -0.59375 C 3.257812 -0.03125 2.65625 0.25 2.03125 0.25 C 1.5625 0.25 1.164062 0.0976562 0.84375 -0.203125 C 0.519531 -0.515625 0.359375 -0.988281 0.359375 -1.625 C 0.359375 -1.875 0.382812 -2.125 0.4375 -2.375 C 0.59375 -3.257812 0.945312 -4.097656 1.5 -4.890625 C 2.0625 -5.679688 2.707031 -6.316406 3.4375 -6.796875 C 4.164062 -7.285156 4.867188 -7.53125 5.546875 -7.53125 C 5.835938 -7.53125 6.085938 -7.488281 6.296875 -7.40625 L 6.984375 -11.125 C 7.023438 -11.375 7.046875 -11.578125 7.046875 -11.734375 C 7.046875 -12.097656 6.925781 -12.28125 6.6875 -12.28125 C 6.53125 -12.28125 6.265625 -12.191406 5.890625 -12.015625 L 5.875 -12.015625 C 5.8125 -12.015625 5.769531 -12.050781 5.75 -12.125 C 5.738281 -12.195312 5.757812 -12.238281 5.8125 -12.25 L 8.734375 -13.6875 L 8.78125 -13.6875 C 8.832031 -13.6875 8.878906 -13.664062 8.921875 -13.625 C 8.960938 -13.59375 8.976562 -13.5625 8.96875 -13.53125 Z M 2.984375 -1.078125 C 3.390625 -1.078125 3.78125 -1.265625 4.15625 -1.640625 C 4.539062 -2.015625 4.875 -2.472656 5.15625 -3.015625 C 5.445312 -3.566406 5.65625 -4.09375 5.78125 -4.59375 L 5.875 -5.09375 C 5.925781 -5.570312 5.8125 -5.941406 5.53125 -6.203125 C 5.25 -6.472656 4.894531 -6.609375 4.46875 -6.609375 C 3.238281 -6.609375 2.445312 -5.535156 2.09375 -3.390625 C 2.039062 -3.085938 2.015625 -2.78125 2.015625 -2.46875 C 2.015625 -1.539062 2.335938 -1.078125 2.984375 -1.078125 Z M 2.984375 -1.078125 "/></g></g></g><g fill="#ffffff" fill-opacity="1"><g transform="translate(219.039563, 316.538567)"><g><path d="M 2.984375 0.265625 C 2.148438 0.265625 1.515625 0 1.078125 -0.53125 C 0.648438 -1.070312 0.4375 -1.769531 0.4375 -2.625 C 0.4375 -3 0.46875 -3.335938 0.53125 -3.640625 C 0.664062 -4.398438 0.9375 -5.070312 1.34375 -5.65625 C 1.757812 -6.25 2.253906 -6.707031 2.828125 -7.03125 C 3.410156 -7.363281 4.035156 -7.53125 4.703125 -7.53125 C 5.546875 -7.53125 6.1875 -7.273438 6.625 -6.765625 C 7.070312 -6.253906 7.296875 -5.570312 7.296875 -4.71875 C 7.296875 -4.375 7.257812 -4.015625 7.1875 -3.640625 C 7.03125 -2.804688 6.734375 -2.097656 6.296875 -1.515625 C 5.859375 -0.929688 5.347656 -0.488281 4.765625 -0.1875 C 4.179688 0.113281 3.585938 0.265625 2.984375 0.265625 Z M 3.625 -0.203125 C 4.03125 -0.203125 4.378906 -0.4375 4.671875 -0.90625 C 4.960938 -1.375 5.179688 -2.007812 5.328125 -2.8125 C 5.410156 -3.300781 5.453125 -3.796875 5.453125 -4.296875 C 5.453125 -5.117188 5.328125 -5.785156 5.078125 -6.296875 C 4.835938 -6.816406 4.503906 -7.078125 4.078125 -7.078125 C 3.703125 -7.078125 3.363281 -6.851562 3.0625 -6.40625 C 2.769531 -5.96875 2.546875 -5.316406 2.390625 -4.453125 C 2.304688 -3.960938 2.265625 -3.46875 2.265625 -2.96875 C 2.265625 -2.144531 2.382812 -1.476562 2.625 -0.96875 C 2.863281 -0.457031 3.195312 -0.203125 3.625 -0.203125 Z M 3.625 -0.203125 "/></g></g></g><g fill="#ffffff" fill-opacity="1"><g transform="translate(232.408824, 316.538567)"><g><path d="M 5.609375 -7.453125 C 5.929688 -7.453125 6.238281 -7.332031 6.53125 -7.09375 C 6.832031 -6.851562 6.957031 -6.582031 6.90625 -6.28125 C 6.882812 -6.09375 6.796875 -5.914062 6.640625 -5.75 C 6.492188 -5.59375 6.304688 -5.515625 6.078125 -5.515625 C 5.847656 -5.515625 5.601562 -5.617188 5.34375 -5.828125 C 5.25 -5.890625 5.15625 -5.945312 5.0625 -6 C 4.976562 -6.050781 4.894531 -6.078125 4.8125 -6.078125 C 4.601562 -6.078125 4.335938 -5.742188 4.015625 -5.078125 C 3.703125 -4.410156 3.40625 -3.613281 3.125 -2.6875 C 2.84375 -1.757812 2.640625 -0.945312 2.515625 -0.25 L 2.515625 -0.21875 C 2.484375 -0.113281 2.378906 -0.0234375 2.203125 0.046875 C 2.023438 0.117188 1.773438 0.15625 1.453125 0.15625 C 1.035156 0.15625 0.828125 0.101562 0.828125 0 C 0.835938 -0.0820312 0.878906 -0.269531 0.953125 -0.5625 C 1.023438 -0.851562 1.082031 -1.128906 1.125 -1.390625 L 1.90625 -5.609375 C 1.925781 -5.804688 1.9375 -5.9375 1.9375 -6 C 1.9375 -6.351562 1.828125 -6.53125 1.609375 -6.53125 C 1.359375 -6.53125 1 -6.28125 0.53125 -5.78125 C 0.519531 -5.757812 0.5 -5.75 0.46875 -5.75 C 0.414062 -5.75 0.378906 -5.769531 0.359375 -5.8125 C 0.335938 -5.863281 0.34375 -5.910156 0.375 -5.953125 C 0.832031 -6.472656 1.238281 -6.851562 1.59375 -7.09375 C 1.957031 -7.332031 2.320312 -7.453125 2.6875 -7.453125 C 3 -7.453125 3.222656 -7.367188 3.359375 -7.203125 C 3.492188 -7.035156 3.5625 -6.785156 3.5625 -6.453125 C 3.5625 -6.265625 3.546875 -6.054688 3.515625 -5.828125 L 3.140625 -3.75 C 3.878906 -6.21875 4.703125 -7.453125 5.609375 -7.453125 Z M 5.609375 -7.453125 "/></g></g></g></svg>