<svg xmlns="http://www.w3.org/2000/svg" xmlns:xlink="http://www.w3.org/1999/xlink" width="500" zoomAndPan="magnify" viewBox="0 0 375 374.999991" height="500" preserveAspectRatio="xMidYMid meet" version="1.0"><defs><g/><clipPath id="a74abb898a"><path d="M 129 141 L 222 141 L 222 265 L 129 265 Z M 129 141 " clip-rule="nonzero"/></clipPath><clipPath id="013b186713"><path d="M 193.597656 141.503906 L 221.90625 158.589844 L 157.933594 264.585938 L 129.625 247.503906 Z M 193.597656 141.503906 " clip-rule="nonzero"/></clipPath><clipPath id="63eabccd8c"><path d="M 193.597656 141.503906 L 221.90625 158.589844 L 157.933594 264.585938 L 129.625 247.503906 Z M 193.597656 141.503906 " clip-rule="nonzero"/></clipPath><clipPath id="66dcc2c943"><path d="M 132 158 L 195 158 L 195 221 L 132 221 Z M 132 158 " clip-rule="nonzero"/></clipPath><clipPath id="679ec00c45"><path d="M 156.296875 158.386719 L 194.871094 181.664062 L 171.152344 220.964844 L 132.578125 197.6875 Z M 156.296875 158.386719 " clip-rule="nonzero"/></clipPath><clipPath id="0772be7747"><path d="M 156.296875 158.386719 L 194.871094 181.664062 L 171.152344 220.964844 L 132.578125 197.6875 Z M 156.296875 158.386719 " clip-rule="nonzero"/></clipPath><clipPath id="99a971be7c"><path d="M 177 162 L 238 162 L 238 221 L 177 221 Z M 177 162 " clip-rule="nonzero"/></clipPath><clipPath id="0e9cddd5bd"><path d="M 198.882812 162.578125 L 237.457031 185.859375 L 216.269531 220.964844 L 177.695312 197.6875 Z M 198.882812 162.578125 " clip-rule="nonzero"/></clipPath><clipPath id="c8f4ecebd7"><path d="M 198.882812 162.578125 L 237.457031 185.859375 L 216.269531 220.964844 L 177.695312 197.6875 Z M 198.882812 162.578125 " clip-rule="nonzero"/></clipPath></defs><g fill="#ffffff" fill-opacity="1"><g transform="translate(86.702387, 200.873851)"><g><path d="M 76.671875 -119.8125 C 84.953125 -119.8125 91.726562 -119.210938 97 -118.015625 C 102.28125 -116.828125 107.875 -114.722656 113.78125 -111.703125 C 114.53125 -111.203125 115 -110.796875 115.1875 -110.484375 C 115.375 -110.171875 115.53125 -109.195312 115.65625 -107.5625 L 117.921875 -86.09375 C 117.921875 -85.707031 117.570312 -85.484375 116.875 -85.421875 C 116.1875 -85.359375 115.78125 -85.519531 115.65625 -85.90625 C 112.894531 -96.320312 108.3125 -104.132812 101.90625 -109.34375 C 95.5 -114.5625 87.085938 -117.171875 76.671875 -117.171875 C 65.617188 -117.171875 55.914062 -114.847656 47.5625 -110.203125 C 39.207031 -105.554688 32.738281 -98.929688 28.15625 -90.328125 C 23.570312 -81.722656 21.28125 -71.707031 21.28125 -60.28125 C 21.28125 -49.601562 23.820312 -39.648438 28.90625 -30.421875 C 34 -21.191406 40.847656 -13.84375 49.453125 -8.375 C 58.054688 -2.914062 67.253906 -0.1875 77.046875 -0.1875 C 97.890625 -0.1875 111.203125 -10.421875 116.984375 -30.890625 C 116.984375 -31.140625 117.296875 -31.265625 117.921875 -31.265625 C 118.796875 -31.265625 119.234375 -31.078125 119.234375 -30.703125 L 117.734375 -10.734375 C 117.609375 -9.234375 117.421875 -8.289062 117.171875 -7.90625 C 116.921875 -7.53125 116.414062 -7.09375 115.65625 -6.59375 C 109.125 -3.195312 103 -0.84375 97.28125 0.46875 C 91.570312 1.789062 84.765625 2.453125 76.859375 2.453125 C 63.796875 2.453125 52.144531 -0.148438 41.90625 -5.359375 C 31.675781 -10.578125 23.671875 -17.925781 17.890625 -27.40625 C 12.117188 -36.882812 9.234375 -47.78125 9.234375 -60.09375 C 9.234375 -71.894531 12.117188 -82.316406 17.890625 -91.359375 C 23.671875 -100.398438 31.675781 -107.398438 41.90625 -112.359375 C 52.144531 -117.328125 63.734375 -119.8125 76.671875 -119.8125 Z M 76.671875 -119.8125 "/></g></g></g><g fill="#ffffff" fill-opacity="1"><g transform="translate(171.236888, 292.865418)"><g><path d="M 88.53125 -27.5 C 88.53125 -27.875 88.90625 -28.03125 89.65625 -27.96875 C 90.414062 -27.90625 90.796875 -27.6875 90.796875 -27.3125 C 89.660156 -19.40625 89.09375 -11.242188 89.09375 -2.828125 C 89.09375 -1.816406 88.875 -1.09375 88.4375 -0.65625 C 88 -0.21875 87.21875 0 86.09375 0 L 8.28125 0 C 8.03125 0 7.90625 -0.375 7.90625 -1.125 C 7.90625 -1.882812 8.03125 -2.265625 8.28125 -2.265625 C 13.1875 -2.265625 16.800781 -2.578125 19.125 -3.203125 C 21.445312 -3.828125 23.015625 -5.050781 23.828125 -6.875 C 24.640625 -8.695312 25.046875 -11.492188 25.046875 -15.265625 L 25.046875 -102.46875 C 25.046875 -106.238281 24.640625 -109.003906 23.828125 -110.765625 C 23.015625 -112.523438 21.445312 -113.75 19.125 -114.4375 C 16.800781 -115.125 13.1875 -115.46875 8.28125 -115.46875 C 8.03125 -115.46875 7.90625 -115.84375 7.90625 -116.59375 C 7.90625 -117.351562 8.03125 -117.734375 8.28125 -117.734375 L 82.890625 -117.734375 C 84.015625 -117.734375 84.578125 -117.164062 84.578125 -116.03125 L 84.953125 -93.25 C 84.953125 -92.875 84.609375 -92.6875 83.921875 -92.6875 C 83.234375 -92.6875 82.890625 -92.875 82.890625 -93.25 C 82.890625 -99.65625 81.191406 -104.738281 77.796875 -108.5 C 74.410156 -112.269531 69.953125 -114.15625 64.421875 -114.15625 L 51.421875 -114.15625 C 46.648438 -114.15625 43.132812 -113.835938 40.875 -113.203125 C 38.613281 -112.578125 37.070312 -111.382812 36.25 -109.625 C 35.4375 -107.875 35.03125 -105.113281 35.03125 -101.34375 L 35.03125 -63.109375 L 59.90625 -63.109375 C 65.675781 -63.109375 69.691406 -64.078125 71.953125 -66.015625 C 74.210938 -67.960938 75.34375 -71.328125 75.34375 -76.109375 C 75.34375 -76.359375 75.71875 -76.484375 76.46875 -76.484375 C 77.226562 -76.484375 77.609375 -76.359375 77.609375 -76.109375 L 77.421875 -61.21875 C 77.421875 -57.582031 77.484375 -54.882812 77.609375 -53.125 L 77.796875 -44.265625 C 77.796875 -44.015625 77.414062 -43.890625 76.65625 -43.890625 C 75.90625 -43.890625 75.53125 -44.015625 75.53125 -44.265625 C 75.53125 -49.921875 74.335938 -53.878906 71.953125 -56.140625 C 69.566406 -58.398438 65.363281 -59.53125 59.34375 -59.53125 L 35.03125 -59.53125 L 35.03125 -16.015625 C 35.03125 -12.367188 35.4375 -9.695312 36.25 -8 C 37.070312 -6.3125 38.582031 -5.148438 40.78125 -4.515625 C 42.976562 -3.890625 46.523438 -3.578125 51.421875 -3.578125 L 68.75 -3.578125 C 73.78125 -3.578125 78.082031 -5.773438 81.65625 -10.171875 C 85.238281 -14.566406 87.53125 -20.34375 88.53125 -27.5 Z M 88.53125 -27.5 "/></g></g></g><g clip-path="url(#a74abb898a)"><g clip-path="url(#013b186713)"><g clip-path="url(#63eabccd8c)"><path fill="#184341" d="M 193.597656 141.503906 L 221.90625 158.589844 L 157.933594 264.585938 L 129.625 247.503906 Z M 193.597656 141.503906 " fill-opacity="1" fill-rule="nonzero"/></g></g></g><g clip-path="url(#66dcc2c943)"><g clip-path="url(#679ec00c45)"><g clip-path="url(#0772be7747)"><path fill="#184341" d="M 156.296875 158.386719 L 194.871094 181.664062 L 171.152344 220.964844 L 132.578125 197.6875 Z M 156.296875 158.386719 " fill-opacity="1" fill-rule="nonzero"/></g></g></g><g clip-path="url(#99a971be7c)"><g clip-path="url(#0e9cddd5bd)"><g clip-path="url(#c8f4ecebd7)"><path fill="#184341" d="M 198.882812 162.578125 L 237.457031 185.859375 L 216.269531 220.964844 L 177.695312 197.6875 Z M 198.882812 162.578125 " fill-opacity="1" fill-rule="nonzero"/></g></g></g><path stroke-linecap="butt" transform="matrix(0.431029, -0.613718, 0.613753, 0.431053, 118.421159, 279.001623)" fill="none" stroke-linejoin="miter" d="M -0.00174674 1.498057 L 274.02129 1.500549 " stroke="#ffffff" stroke-width="3" stroke-opacity="1" stroke-miterlimit="4"/></svg>